<svg width="16" height="16" viewBox="0 0 16 16" fill="none" xmlns="http://www.w3.org/2000/svg">
<path d="M8.00002 0.888889L8.67442 0.309849C8.50553 0.113164 8.25922 0 8.00002 0C7.74082 0 7.49451 0.113164 7.32562 0.309849L8.00002 0.888889ZM8.00002 0.888889C7.32562 0.309849 7.3258 0.309662 7.32562 0.309849C7.32562 0.309938 7.32509 0.310489 7.32491 0.310667C7.32464 0.311013 7.3242 0.311449 7.32384 0.311956C7.32295 0.312978 7.3218 0.314311 7.32038 0.315964C7.31753 0.319262 7.31371 0.323813 7.30882 0.329591C7.29904 0.341156 7.28518 0.357636 7.2674 0.378871C7.23202 0.421342 7.18126 0.482827 7.11744 0.561938C6.98971 0.72008 6.80935 0.948969 6.59371 1.23728C6.16318 1.81302 5.58898 2.63029 5.0137 3.59811C3.88202 5.50199 2.66669 8.1184 2.66669 10.6667H4.44446C4.44446 8.6136 5.45135 6.34116 6.54189 4.50647C7.07771 3.605 7.61469 2.84058 8.01744 2.30194C8.21851 2.03306 8.38526 1.82158 8.50064 1.67868C8.55833 1.60724 8.60313 1.55302 8.63282 1.51742C8.64766 1.49962 8.65869 1.48647 8.66571 1.47817C8.66927 1.47401 8.67175 1.47107 8.67318 1.46935C8.67398 1.4685 8.67442 1.46795 8.6746 1.46771C8.67451 1.46781 8.67442 1.46793 8.00002 0.888889ZM13.3334 10.6667C13.3334 8.1184 12.118 5.50199 10.9863 3.59811C10.411 2.63029 9.83691 1.81302 9.40633 1.23728C9.19069 0.948969 9.01033 0.72008 8.8826 0.561938C8.81878 0.482827 8.76802 0.421342 8.73264 0.378871C8.71486 0.357636 8.701 0.341156 8.69122 0.329591C8.68633 0.323813 8.68251 0.319262 8.67966 0.315964C8.67824 0.314311 8.67709 0.312978 8.6762 0.311956C8.67584 0.311449 8.6754 0.311013 8.67513 0.310667C8.67495 0.310489 8.67513 0.310755 8.67513 0.310667C8.67495 0.31048 8.67442 0.309849 8.00002 0.888889C7.32562 1.46793 7.32553 1.4678 7.32544 1.4677C7.32562 1.46794 7.32606 1.4685 7.32686 1.46935C7.32829 1.47107 7.33078 1.47401 7.33433 1.47817C7.34135 1.48647 7.35238 1.49962 7.36722 1.51742C7.39691 1.55302 7.44171 1.60724 7.4994 1.67868C7.61478 1.82158 7.78153 2.03306 7.9826 2.30194C8.38535 2.84058 8.92233 3.605 9.45815 4.50647C10.5487 6.34116 11.5556 8.6136 11.5556 10.6667H13.3334ZM11.5556 10.6667C11.5556 12.6303 9.96367 14.2222 8.00002 14.2222V16C10.9455 16 13.3334 13.6122 13.3334 10.6667H11.5556ZM8.00002 14.2222C6.03634 14.2222 4.44446 12.6303 4.44446 10.6667H2.66669C2.66669 13.6122 5.0545 16 8.00002 16V14.2222Z" fill="white"/>
</svg>
