<svg width="17" height="16" viewBox="0 0 17 16" fill="none" xmlns="http://www.w3.org/2000/svg">
<path d="M8.66665 9.22808H7.86665C7.86665 9.51368 8.01889 9.7776 8.26609 9.92056L8.66665 9.22808ZM5.46665 9.22808L5.86723 9.92056C6.11443 9.7776 6.26665 9.51368 6.26665 9.22808H5.46665ZM7.86665 2.4V9.22808H9.46665V2.4H7.86665ZM7.06665 1.6C7.50849 1.6 7.86665 1.95818 7.86665 2.4H9.46665C9.46665 1.07452 8.39217 0 7.06665 0V1.6ZM6.26665 2.4C6.26665 1.95818 6.62483 1.6 7.06665 1.6V0C5.74117 0 4.66665 1.07452 4.66665 2.4H6.26665ZM6.26665 9.22808V2.4H4.66665V9.22808H6.26665ZM4.66665 12C4.66665 11.1126 5.14778 10.3368 5.86723 9.92056L5.06607 8.5356C3.87255 9.226 3.06665 10.5184 3.06665 12H4.66665ZM7.06665 14.4C5.74117 14.4 4.66665 13.3255 4.66665 12H3.06665C3.06665 14.2091 4.85751 16 7.06665 16V14.4ZM9.46665 12C9.46665 13.3255 8.39217 14.4 7.06665 14.4V16C9.27577 16 11.0667 14.2091 11.0667 12H9.46665ZM8.26609 9.92056C8.98553 10.3368 9.46665 11.1126 9.46665 12H11.0667C11.0667 10.5184 10.2607 9.226 9.06721 8.5356L8.26609 9.92056Z" fill="white"/>
<path d="M11.0667 7.2H12.6667" stroke="white" stroke-width="2" stroke-linecap="round" stroke-linejoin="round"/>
<path d="M11.0667 4.8H12.6667" stroke="white" stroke-width="2" stroke-linecap="round" stroke-linejoin="round"/>
<path d="M11.0667 2.39999H14.2667" stroke="white" stroke-width="2" stroke-linecap="round" stroke-linejoin="round"/>
<path d="M7.0666 12.8C7.50843 12.8 7.8666 12.4418 7.8666 12C7.8666 11.5582 7.50843 11.2 7.0666 11.2C6.62477 11.2 6.2666 11.5582 6.2666 12C6.2666 12.4418 6.62477 12.8 7.0666 12.8Z" fill="white"/>
</svg>
