<svg width="17" height="16" viewBox="0 0 17 16" fill="none" xmlns="http://www.w3.org/2000/svg">
<g clip-path="url(#clip0_35_27)">
<path fill-rule="evenodd" clip-rule="evenodd" d="M4.99998 3.33334C4.99998 1.86058 6.19389 0.666672 7.66665 0.666672C9.13938 0.666672 10.3333 1.86058 10.3333 3.33334C10.3333 4.8061 9.13938 6.00001 7.66665 6.00001H2.33331C1.96513 6.00001 1.66665 5.70153 1.66665 5.33334C1.66665 4.96515 1.96513 4.66667 2.33331 4.66667H7.66665C8.40305 4.66667 8.99998 4.06972 8.99998 3.33334C8.99998 2.59696 8.40305 2.00001 7.66665 2.00001C6.93027 2.00001 6.33331 2.59696 6.33331 3.33334V3.40001C6.33331 3.76819 6.03483 4.06667 5.66665 4.06667C5.29846 4.06667 4.99998 3.76819 4.99998 3.40001V3.33334ZM11.6 4.00001C11.6 3.63182 11.8984 3.33334 12.2666 3.33334H12.3333C13.806 3.33334 15 4.52725 15 6.00001C15 7.47274 13.806 8.66667 12.3333 8.66667H3.66665C3.29846 8.66667 2.99998 8.36821 2.99998 8.00001C2.99998 7.63181 3.29846 7.33334 3.66665 7.33334H12.3333C13.0697 7.33334 13.6666 6.73641 13.6666 6.00001C13.6666 5.26363 13.0697 4.66667 12.3333 4.66667H12.2666C11.8984 4.66667 11.6 4.36819 11.6 4.00001ZM0.333313 8.00001C0.333313 7.63181 0.63179 7.33334 0.99998 7.33334H1.66665C2.03483 7.33334 2.33331 7.63181 2.33331 8.00001C2.33331 8.36821 2.03483 8.66667 1.66665 8.66667H0.99998C0.63179 8.66667 0.333313 8.36821 0.333313 8.00001ZM2.99998 10.6667C2.99998 10.2985 3.29846 10 3.66665 10H4.33331C4.7015 10 4.99998 10.2985 4.99998 10.6667C4.99998 11.0349 4.7015 11.3333 4.33331 11.3333H3.66665C3.29846 11.3333 2.99998 11.0349 2.99998 10.6667ZM5.66665 10.6667C5.66665 10.2985 5.96513 10 6.33331 10H8.99998C10.4727 10 11.6666 11.1939 11.6666 12.6667C11.6666 14.1394 10.4727 15.3333 8.99998 15.3333C7.52725 15.3333 6.33331 14.1394 6.33331 12.6667V12.6C6.33331 12.2318 6.63179 11.9333 6.99998 11.9333C7.36818 11.9333 7.66665 12.2318 7.66665 12.6V12.6667C7.66665 13.4031 8.26358 14 8.99998 14C9.73638 14 10.3333 13.4031 10.3333 12.6667C10.3333 11.9303 9.73638 11.3333 8.99998 11.3333H6.33331C5.96513 11.3333 5.66665 11.0349 5.66665 10.6667Z" fill="white"/>
</g>
<defs>
<clipPath id="clip0_35_27">
<rect width="16" height="16" fill="white" transform="translate(0.333313)"/>
</clipPath>
</defs>
</svg>
