<svg width="84" height="84" viewBox="0 0 84 84" fill="none" xmlns="http://www.w3.org/2000/svg">
<path d="M36.8473 28L38.3375 29.3338L37.7413 30H36.8473V28ZM52.5 23C46.873 23 41.8194 25.4436 38.3375 29.3338L35.357 26.6662C39.5656 21.964 45.688 19 52.5 19V23ZM71.5 42C71.5 31.5066 62.9934 23 52.5 23V19C65.2025 19 75.5 29.2975 75.5 42H71.5ZM52.5 61C62.9934 61 71.5 52.4934 71.5 42H75.5C75.5 54.7025 65.2025 65 52.5 65V61ZM28 61H52.5V65H28V61ZM12.5 45.5C12.5 54.0604 19.4396 61 28 61V65C17.2304 65 8.5 56.2696 8.5 45.5H12.5ZM28 30C19.4396 30 12.5 36.9396 12.5 45.5H8.5C8.5 34.7304 17.2304 26 28 26V30ZM36.8473 30H28V26H36.8473V30Z" fill="white"/>
<path d="M57.112 62.4873C60.9745 61.6178 64.5125 59.6741 67.3179 56.8806C70.1233 54.087 72.0818 50.5572 72.9676 46.6985C73.8534 42.8398 73.6304 38.8092 72.3242 35.0718C71.0181 31.3344 68.682 28.0423 65.5855 25.5753C62.4889 23.1083 58.7581 21.5669 54.8233 21.1289C50.8885 20.6909 46.9101 21.3741 43.3468 23.0998C39.7836 24.8254 36.7807 27.5231 34.6847 30.8818C32.5886 34.2405 31.4846 38.1234 31.5002 42.0824" stroke="white" stroke-width="4"/>
</svg>
