<svg width="84" height="84" viewBox="0 0 84 84" fill="none" xmlns="http://www.w3.org/2000/svg">
<path d="M50.5888 38.1084L48.7577 38.9129L50.5888 38.1084ZM52.2473 41.2272L53.5872 39.7424L52.2473 41.2272ZM53.0265 41.7359L53.847 39.912L53.0265 41.7359ZM35.8434 69.1748L36.3779 71.102L35.8434 69.1748ZM41.3374 69.3708L40.7434 71.2805L41.3374 69.3708ZM38.4125 68.5888L38.3815 70.5885L38.4125 68.5888ZM35.3089 67.2475C33.542 67.7375 31.6783 68 29.75 68V72C32.0429 72 34.2661 71.6877 36.3779 71.102L35.3089 67.2475ZM29.75 68C18.2901 68 9 58.7099 9 47.25H5C5 60.919 16.081 72 29.75 72V68ZM9 47.25C9 35.7901 18.2901 26.5 29.75 26.5V22.5C16.081 22.5 5 33.581 5 47.25H9ZM29.75 26.5C38.241 26.5 45.5453 31.6004 48.7577 38.9129L52.4199 37.304C48.5923 28.5912 39.8847 22.5 29.75 22.5V26.5ZM56 44C62.6274 44 68 49.3726 68 56H72C72 47.1634 64.8366 40 56 40V44ZM68 56C68 62.6274 62.6274 68 56 68V72C64.8366 72 72 64.8366 72 56H68ZM56 68H45.5V72H56V68ZM45.5 68C44.2541 68 43.0562 67.8108 41.9313 67.461L40.7434 71.2805C42.2485 71.7486 43.8468 72 45.5 72V68ZM48.7577 38.9129C49.1411 39.7857 49.4636 40.5217 49.7532 41.0883C50.0322 41.6342 50.3849 42.2405 50.9074 42.712L53.5872 39.7424C53.6318 39.7827 53.5488 39.7255 53.3149 39.2677C53.0914 38.8306 52.8235 38.2229 52.4199 37.304L48.7577 38.9129ZM56 40C55.1759 40 54.6614 39.9988 54.2765 39.9719C53.9036 39.9458 53.8282 39.9036 53.847 39.912L52.206 43.5599C52.8117 43.8324 53.4277 43.9222 53.997 43.9621C54.5543 44.0012 55.2331 44 56 44V40ZM50.9074 42.712C51.3302 43.0935 51.6867 43.3263 52.206 43.5599L53.847 39.912C53.7397 39.8638 53.7119 39.8451 53.7073 39.8421C53.7027 39.8391 53.6745 39.8212 53.5872 39.7424L50.9074 42.712ZM36.3779 71.102C37.1054 70.9003 37.5982 70.7639 37.9648 70.6764C38.3615 70.5817 38.4363 70.5894 38.3815 70.5885L38.4435 66.589C37.9567 66.5815 37.4594 66.6846 37.0358 66.7858C36.5819 66.8941 36.0062 67.0541 35.3089 67.2475L36.3779 71.102ZM41.9313 67.461C41.1136 67.2067 40.4545 67.0015 39.9476 66.861C39.4925 66.735 38.9476 66.5968 38.4435 66.589L38.3815 70.5885C38.3093 70.5874 38.3959 70.5818 38.8797 70.7159C39.3117 70.8355 39.8991 71.018 40.7434 71.2805L41.9313 67.461Z" fill="white"/>
<g style="mix-blend-mode:lighten">
<path d="M64.0327 44.7459C66.4583 43.9159 68.6093 42.4358 70.2513 40.4671C71.8933 38.4984 72.9632 36.1166 73.3444 33.5815C73.7256 31.0464 73.4033 28.4553 72.4128 26.0908C71.4223 23.7262 69.8015 21.6791 67.7273 20.1725C65.6531 18.666 63.205 17.7579 60.6501 17.5473C58.0952 17.3367 55.5314 17.8317 53.2385 18.9783C50.9456 20.1248 49.0115 21.879 47.6472 24.0494C46.2829 26.2198 45.5407 28.7231 45.5016 31.2864" stroke="#FFDB58" stroke-width="4"/>
</g>
</svg>
