<svg width="84" height="84" viewBox="0 0 84 84" fill="none" xmlns="http://www.w3.org/2000/svg">
<path d="M24.6389 23.5434L26.1032 24.9057L24.6389 23.5434ZM23.4074 24.3406L22.7642 22.4469L23.4074 24.3406ZM60.3727 24.2225L61.2128 22.4075L60.3727 24.2225ZM57.7625 20.3885L55.9621 21.2595L57.7625 20.3885ZM59.7308 23.82L60.9988 22.2733L59.7308 23.82ZM42 43.5H21V47.5H42V43.5ZM63.5 43.5H42V47.5H63.5V43.5ZM71.5 35.5C71.5 39.9183 67.9183 43.5 63.5 43.5V47.5C70.1274 47.5 75.5 42.1274 75.5 35.5H71.5ZM71.5 34.5V35.5H75.5V34.5H71.5ZM63.5 26.5C67.9183 26.5 71.5 30.0817 71.5 34.5H75.5C75.5 27.8726 70.1274 22.5 63.5 22.5V26.5ZM59.5629 19.5176C56.4105 13.0013 49.7328 8.5 42 8.5V12.5C48.1413 12.5 53.4522 16.0714 55.9621 21.2595L59.5629 19.5176ZM42 8.5C34.0691 8.5 27.2483 13.2345 24.2015 20.0229L27.8509 21.6607C30.2761 16.257 35.7015 12.5 42 12.5V8.5ZM21 22.5C14.0964 22.5 8.5 28.0964 8.5 35H12.5C12.5 30.3056 16.3056 26.5 21 26.5V22.5ZM8.5 35C8.5 41.9036 14.0964 47.5 21 47.5V43.5C16.3056 43.5 12.5 39.6944 12.5 35H8.5ZM24.2015 20.0229C23.8443 20.8188 23.6016 21.3586 23.4072 21.7482C23.1964 22.1707 23.1313 22.2278 23.1747 22.1811L26.1032 24.9057C26.4842 24.4962 26.7629 23.9821 26.9863 23.5342C27.2262 23.0535 27.5083 22.424 27.8509 21.6607L24.2015 20.0229ZM21 26.5C21.6246 26.5 22.1705 26.5006 22.6165 26.4774C23.0649 26.4539 23.5581 26.4017 24.0507 26.2343L22.7642 22.4469C22.7875 22.4389 22.723 22.4663 22.408 22.4828C22.0907 22.4994 21.6675 22.5 21 22.5V26.5ZM23.1747 22.1811C23.1016 22.2597 23.0563 22.303 23.0286 22.3276C23.0155 22.3392 23.0071 22.3459 23.0027 22.3493C22.9984 22.3525 22.9963 22.3539 22.9956 22.3544C22.9948 22.3549 22.9927 22.3563 22.988 22.3588C22.9831 22.3615 22.9735 22.3664 22.9576 22.3736C22.9238 22.3888 22.8658 22.4123 22.7642 22.4469L24.0507 26.2343C24.4114 26.1118 24.7892 25.9583 25.1691 25.7124C25.5491 25.4664 25.8438 25.1846 26.1032 24.9057L23.1747 22.1811ZM63.5 22.5C62.6286 22.5 62.0788 22.4989 61.6687 22.4702C61.2659 22.442 61.188 22.396 61.2128 22.4075L59.5326 26.0375C60.1569 26.3265 60.8001 26.4192 61.3898 26.4604C61.9721 26.5011 62.6862 26.5 63.5 26.5V22.5ZM55.9621 21.2595C56.4375 22.2421 56.8297 23.0546 57.1694 23.6686C57.4874 24.2433 57.8895 24.8967 58.4627 25.3666L60.9988 22.2733C61.0612 22.3245 60.965 22.2663 60.6694 21.7321C60.3956 21.2372 60.0591 20.5433 59.5629 19.5176L55.9621 21.2595ZM61.2128 22.4075C61.1039 22.3571 61.0902 22.3464 61.0987 22.3518C61.1071 22.3571 61.0916 22.3494 60.9988 22.2733L58.4627 25.3666C58.8336 25.6706 59.0975 25.8361 59.5326 26.0375L61.2128 22.4075Z" fill="white"/>
<path d="M21 54L45 54" stroke="#4E6881" stroke-width="4" stroke-linecap="round"/>
<path d="M39 62L63 62" stroke="#4E6881" stroke-width="4" stroke-linecap="round"/>
<path d="M27 70H46" stroke="#4E6881" stroke-width="4" stroke-linecap="round"/>
</svg>
