<svg width="84" height="85" viewBox="0 0 84 85" fill="none" xmlns="http://www.w3.org/2000/svg">
<path d="M24.6389 24.0434L26.1032 25.4057L24.6389 24.0434ZM23.4074 24.8406L22.7642 22.9469L23.4074 24.8406ZM60.3727 24.7225L61.2128 22.9075L60.3727 24.7225ZM57.7625 20.8885L55.9621 21.7595L57.7625 20.8885ZM59.7308 24.32L60.9988 22.7733L59.7308 24.32ZM42 44H21V48H42V44ZM63.5 44H42V48H63.5V44ZM71.5 36C71.5 40.4183 67.9183 44 63.5 44V48C70.1274 48 75.5 42.6274 75.5 36H71.5ZM71.5 35V36H75.5V35H71.5ZM63.5 27C67.9183 27 71.5 30.5817 71.5 35H75.5C75.5 28.3726 70.1274 23 63.5 23V27ZM59.5629 20.0176C56.4105 13.5013 49.7328 9 42 9V13C48.1413 13 53.4522 16.5714 55.9621 21.7595L59.5629 20.0176ZM42 9C34.0691 9 27.2483 13.7345 24.2015 20.5229L27.8509 22.1607C30.2761 16.757 35.7015 13 42 13V9ZM21 23C14.0964 23 8.5 28.5964 8.5 35.5H12.5C12.5 30.8056 16.3056 27 21 27V23ZM8.5 35.5C8.5 42.4036 14.0964 48 21 48V44C16.3056 44 12.5 40.1944 12.5 35.5H8.5ZM24.2015 20.5229C23.8443 21.3188 23.6016 21.8586 23.4072 22.2482C23.1964 22.6707 23.1313 22.7278 23.1747 22.6811L26.1032 25.4057C26.4842 24.9962 26.7629 24.4821 26.9863 24.0342C27.2262 23.5535 27.5083 22.924 27.8509 22.1607L24.2015 20.5229ZM21 27C21.6246 27 22.1705 27.0006 22.6165 26.9774C23.0649 26.9539 23.5581 26.9017 24.0507 26.7343L22.7642 22.9469C22.7875 22.9389 22.723 22.9663 22.408 22.9828C22.0907 22.9994 21.6675 23 21 23V27ZM23.1747 22.6811C23.1016 22.7597 23.0563 22.803 23.0286 22.8276C23.0155 22.8392 23.0071 22.8459 23.0027 22.8493C22.9984 22.8525 22.9963 22.8539 22.9956 22.8544C22.9948 22.8549 22.9927 22.8563 22.988 22.8588C22.9831 22.8615 22.9735 22.8664 22.9576 22.8736C22.9238 22.8888 22.8658 22.9123 22.7642 22.9469L24.0507 26.7343C24.4114 26.6118 24.7892 26.4583 25.1691 26.2124C25.5491 25.9664 25.8438 25.6846 26.1032 25.4057L23.1747 22.6811ZM63.5 23C62.6286 23 62.0788 22.9989 61.6687 22.9702C61.2659 22.942 61.188 22.896 61.2128 22.9075L59.5326 26.5375C60.1569 26.8265 60.8001 26.9192 61.3898 26.9604C61.9721 27.0011 62.6862 27 63.5 27V23ZM55.9621 21.7595C56.4375 22.7421 56.8297 23.5546 57.1694 24.1686C57.4874 24.7433 57.8895 25.3967 58.4627 25.8666L60.9988 22.7733C61.0612 22.8245 60.965 22.7663 60.6694 22.2321C60.3956 21.7372 60.0591 21.0433 59.5629 20.0176L55.9621 21.7595ZM61.2128 22.9075C61.1039 22.8571 61.0902 22.8464 61.0987 22.8518C61.1071 22.8571 61.0916 22.8494 60.9988 22.7733L58.4627 25.8666C58.8336 26.1706 59.0975 26.3361 59.5326 26.5375L61.2128 22.9075Z" fill="white"/>
<circle cx="59.5" cy="66" r="2.16667" stroke="#7FD1FF" stroke-width="2"/>
<path d="M59.5 62.8333V61.25M59.5 58.875V61.25M59.5 61.25L57.125 59.6667M59.5 61.25L61.875 59.6667" stroke="#7FD1FF" stroke-width="2" stroke-linecap="round"/>
<path d="M62.6667 66L64.25 66M66.625 66L64.25 66M64.25 66L65.8333 63.625M64.25 66L65.8333 68.375" stroke="#7FD1FF" stroke-width="2" stroke-linecap="round"/>
<path d="M59.5 69.1667V70.75M59.5 73.125V70.75M59.5 70.75L57.125 72.3333M59.5 70.75L61.875 72.3333" stroke="#7FD1FF" stroke-width="2" stroke-linecap="round"/>
<path d="M56.3333 66L54.75 66M52.375 66L54.75 66M54.75 66L53.1667 63.625M54.75 66L53.1667 68.375" stroke="#7FD1FF" stroke-width="2" stroke-linecap="round"/>
<path d="M42 67V60" stroke="#4E6881" stroke-width="4" stroke-linecap="round"/>
<path d="M24.5 74V60" stroke="#4E6881" stroke-width="4" stroke-linecap="round"/>
</svg>
