<svg width="84" height="84" viewBox="0 0 84 84" fill="none" xmlns="http://www.w3.org/2000/svg">
<path d="M31.4968 60.3H40V71.1638C40 71.1867 40 71.2103 40 71.2343C39.9997 71.5366 39.9994 71.9258 40.0374 72.2413C40.0576 72.4088 40.107 72.7457 40.2793 73.0998C40.4818 73.516 40.9084 74.0485 41.6588 74.2529C42.4093 74.4572 43.0469 74.2145 43.4325 73.9585C43.7605 73.7406 43.974 73.4753 44.0763 73.3411C44.2691 73.0884 44.4661 72.7528 44.6192 72.4921C44.6313 72.4714 44.6432 72.4511 44.6548 72.4314L55.9509 53.2281C55.9699 53.1958 55.989 53.1634 56.0081 53.1309C56.351 52.5485 56.7129 51.9338 56.9305 51.3958C57.1664 50.8127 57.4626 49.7717 56.8557 48.7106C56.2488 47.6494 55.2013 47.377 54.5791 47.2846C54.0051 47.1994 53.2918 47.1997 52.6159 47.2C52.5782 47.2 52.5406 47.2 52.5032 47.2H44V36.3362C44 36.3133 44 36.2897 44 36.2657C44.0003 35.9634 44.0006 35.5742 43.9626 35.2587C43.9424 35.0912 43.893 34.7543 43.7207 34.4002C43.5182 33.984 43.0916 33.4515 42.3412 33.2471C41.5907 33.0428 40.9531 33.2855 40.5675 33.5415C40.2395 33.7594 40.026 34.0247 39.9237 34.1589C39.7309 34.4116 39.5339 34.7472 39.3808 35.0079C39.3687 35.0286 39.3568 35.0489 39.3452 35.0686L41.0392 36.0651L39.3452 35.0686L28.0491 54.2719C28.0301 54.3042 28.011 54.3366 27.9919 54.3691C27.649 54.9515 27.2871 55.5662 27.0695 56.1042C26.8336 56.6873 26.5374 57.7283 27.1443 58.7894C27.7512 59.8506 28.7987 60.123 29.4209 60.2154C29.9949 60.3006 30.7082 60.3003 31.3841 60.3C31.4218 60.3 31.4594 60.3 31.4968 60.3ZM39.9995 58.6946C39.9995 58.6948 39.9995 58.695 39.9995 58.6952L39.9995 58.6946ZM44.0005 48.8054C44.0005 48.8052 44.0005 48.805 44.0005 48.8048L44.0005 48.8054Z" stroke="#FFDB58" stroke-width="4"/>
<path fill-rule="evenodd" clip-rule="evenodd" d="M42 8.5C34.0691 8.5 27.2483 13.2345 24.2015 20.0229C23.8443 20.8188 23.6016 21.3586 23.4072 21.7482C23.264 22.0351 23.1881 22.1535 23.1676 22.1854C23.1636 22.1917 23.1617 22.1946 23.1619 22.1947L23.162 22.1947C23.0963 22.2648 23.0547 22.3045 23.0286 22.3276C23.0155 22.3392 23.0071 22.3459 23.0027 22.3493C22.9984 22.3525 22.9963 22.3539 22.9956 22.3544C22.9948 22.3549 22.9927 22.3563 22.988 22.3588C22.9831 22.3615 22.9735 22.3664 22.9576 22.3736C22.9242 22.3886 22.8672 22.4118 22.7679 22.4456C22.7597 22.4476 22.6715 22.469 22.408 22.4828C22.0907 22.4994 21.6675 22.5 21 22.5C14.0964 22.5 8.5 28.0964 8.5 35C8.5 40.6886 12.3 45.4897 17.5 47.0034V44.5C17.5 43.8457 17.5 43.267 17.5109 42.7532C14.5565 41.4216 12.5 38.4509 12.5 35C12.5 30.3056 16.3056 26.5 21 26.5H21.0489C21.6531 26.5 22.1822 26.5 22.6165 26.4774C23.0649 26.4539 23.5581 26.4017 24.0507 26.2343C24.4114 26.1118 24.7892 25.9583 25.1691 25.7124C25.5491 25.4664 25.8438 25.1846 26.1032 24.9057C26.4842 24.4962 26.7629 23.9821 26.9863 23.5342C27.2219 23.0621 27.4982 22.4464 27.8326 21.7015L27.8326 21.7014L27.8509 21.6607C30.2761 16.257 35.7015 12.5 42 12.5C48.1413 12.5 53.4522 16.0714 55.9621 21.2595L55.9879 21.313C56.4517 22.2716 56.8359 23.0657 57.1694 23.6686C57.4874 24.2433 57.8895 24.8967 58.4627 25.3666C58.8336 25.6706 59.0975 25.8361 59.5326 26.0375C60.1569 26.3265 60.8001 26.4192 61.3898 26.4604C61.9565 26.5001 62.648 26.5 63.4348 26.5H63.5C67.9183 26.5 71.5 30.0817 71.5 34.5V35.5C71.5 38.8603 69.4282 41.7368 66.4923 42.9216C66.5 43.3926 66.5 43.9162 66.5 44.5V47.1219C71.6757 45.7898 75.5 41.0915 75.5 35.5V34.5C75.5 27.8726 70.1274 22.5 63.5 22.5C62.6286 22.5 62.0788 22.4989 61.6687 22.4702C61.2659 22.442 61.188 22.396 61.2128 22.4075C61.1355 22.3717 61.1062 22.356 61.0987 22.3518C61.0923 22.3473 61.0697 22.331 61.0169 22.2881C61.0169 22.2876 61.0146 22.2846 61.0099 22.2785C60.9825 22.2429 60.8735 22.101 60.6694 21.7321C60.3956 21.2372 60.0591 20.5433 59.5629 19.5176C56.4105 13.0013 49.7328 8.5 42 8.5Z" fill="white"/>
</svg>
