<svg width="49" height="48" viewBox="0 0 49 48" fill="none" xmlns="http://www.w3.org/2000/svg">
<path d="M16.5 40C16.5 37.8783 17.3429 35.8434 18.8431 34.3431C20.3434 32.8429 22.3783 32 24.5 32C26.6217 32 28.6566 32.8429 30.1569 34.3431C31.6571 35.8434 32.5 37.8783 32.5 40" stroke="#FFDB58" stroke-width="4"/>
<path d="M35.5 29L39.5 25" stroke="#FFDB58" stroke-width="4" stroke-linecap="round"/>
<path d="M10.5 40H38.5" stroke="white" stroke-width="4" stroke-linecap="square"/>
<path d="M9.49994 24.9998L13.4999 28.9998" stroke="#FFDB58" stroke-width="4" stroke-linecap="round"/>
<path d="M24.5 8L25.9142 6.58579L24.5 5.17157L23.0858 6.58579L24.5 8ZM22.5 25C22.5 26.1046 23.3954 27 24.5 27C25.6046 27 26.5 26.1046 26.5 25H22.5ZM31.9142 12.5858L25.9142 6.58579L23.0858 9.41421L29.0858 15.4142L31.9142 12.5858ZM23.0858 6.58579L17.0858 12.5858L19.9142 15.4142L25.9142 9.41421L23.0858 6.58579ZM22.5 8L22.5 25H26.5L26.5 8L22.5 8Z" fill="#FFDB58"/>
</svg>
