<svg width="49" height="48" viewBox="0 0 49 48" fill="none" xmlns="http://www.w3.org/2000/svg">
<path d="M16.5 40C16.5 37.8783 17.3429 35.8434 18.8431 34.3431C20.3434 32.8429 22.3783 32 24.5 32C26.6217 32 28.6566 32.8429 30.1569 34.3431C31.6571 35.8434 32.5 37.8783 32.5 40" stroke="#FFDB58" stroke-width="4"/>
<path d="M35.5 29L39.5 25" stroke="#FFDB58" stroke-width="4" stroke-linecap="round"/>
<path d="M10.5 40H38.5" stroke="white" stroke-width="4" stroke-linecap="square"/>
<path d="M9.49994 24.9998L13.4999 28.9998" stroke="#FFDB58" stroke-width="4" stroke-linecap="round"/>
<path d="M24.5 25L23.0858 26.4142L24.5 27.8284L25.9142 26.4142L24.5 25ZM26.5 8C26.5 6.89543 25.6046 6 24.5 6C23.3954 6 22.5 6.89543 22.5 8H26.5ZM17.0858 20.4142L23.0858 26.4142L25.9142 23.5858L19.9142 17.5858L17.0858 20.4142ZM25.9142 26.4142L31.9142 20.4142L29.0858 17.5858L23.0858 23.5858L25.9142 26.4142ZM26.5 25L26.5 8H22.5L22.5 25L26.5 25Z" fill="#FFDB58"/>
</svg>
