<svg width="37" height="36" viewBox="0 0 37 36" fill="none" xmlns="http://www.w3.org/2000/svg">
<path d="M18.5 20.7632H16.7C16.7 21.4058 17.0426 21.9996 17.5988 22.3213L18.5 20.7632ZM11.3 20.7632L12.2013 22.3213C12.7575 21.9996 13.1 21.4058 13.1 20.7632H11.3ZM16.7 5.4V20.7632H20.3V5.4H16.7ZM14.9 3.6C15.8942 3.6 16.7 4.4059 16.7 5.4H20.3C20.3 2.41767 17.8824 0 14.9 0V3.6ZM13.1 5.4C13.1 4.4059 13.9059 3.6 14.9 3.6V0C11.9177 0 9.50002 2.41767 9.50002 5.4H13.1ZM13.1 20.7632V5.4H9.50002V20.7632H13.1ZM9.50002 27C9.50002 25.0034 10.5826 23.2578 12.2013 22.3213L10.3987 19.2051C7.71331 20.7585 5.90002 23.6664 5.90002 27H9.50002ZM14.9 32.4C11.9177 32.4 9.50002 29.9824 9.50002 27H5.90002C5.90002 31.9705 9.92947 36 14.9 36V32.4ZM20.3 27C20.3 29.9824 17.8824 32.4 14.9 32.4V36C19.8705 36 23.9 31.9705 23.9 27H20.3ZM17.5988 22.3213C19.2175 23.2578 20.3 25.0034 20.3 27H23.9C23.9 23.6664 22.0867 20.7585 19.4013 19.2051L17.5988 22.3213Z" fill="white"/>
<path d="M23.9 16.2H27.5" stroke="white" stroke-width="2" stroke-linecap="round" stroke-linejoin="round"/>
<path d="M23.9 10.8H27.5" stroke="white" stroke-width="2" stroke-linecap="round" stroke-linejoin="round"/>
<path d="M23.9 5.40002H31.1" stroke="#CD0000" stroke-width="2" stroke-linecap="round" stroke-linejoin="round"/>
<path d="M14.9 28.8C15.8941 28.8 16.7 27.9941 16.7 27C16.7 26.0059 15.8941 25.2 14.9 25.2C13.9059 25.2 13.1 26.0059 13.1 27C13.1 27.9941 13.9059 28.8 14.9 28.8Z" fill="#CD0000"/>
</svg>
